# xmcd
#
# Track frame offsets:
#	150
#	15666
#	28473
#	42965
#	53341
#	67427
#	81510
#	91197
#	106653
#	117690
#	131906
#	149096
#	162794
#	176305
#	187280
#	200147
#	212281
#	224070
#
# Disc length: 3150 seconds
# Revision: 0
# Processed by: cddbd v1.5.2PL0 Copyright (c) Steve Scherf et al.
# Submitted via: dBpowerAMP V12.0
#
DISCID=1c0c4c12
DTITLE=O.V. Wright - The Soul of O.V. Wright [MCA] (sa)
DYEAR=1992
DGENRE=Soul
TTITLE0=You're Gonna Make Me Cry
TTITLE1=I'd Rather Be Blind, Crippled and Crazy
TTITLE2=When You Took Your Love From Me
TTITLE3=Gonna Forget About You
TTITLE4=Everybody Knows (The River Song)
TTITLE5=Don't Let My Baby Ride
TTITLE6=I Don't Want To Sit Down
TTITLE7=Born All Over
TTITLE8=Ace of Spades
TTITLE9=Eight Men, Four Women
TTITLE10=A Nickel and a Nail
TTITLE11=Heartaches, Heartaches
TTITLE12=Drowning on Dry Land
TTITLE13=Monkey Dog
TTITLE14=He's My Son (Just the Same)
TTITLE15=I've Been Searching
TTITLE16=Motherless Child
TTITLE17=I'm Going Home (To Live With God)
EXTD=
EXTT0=
EXTT1=
EXTT2=
EXTT3=
EXTT4=
EXTT5=
EXTT6=
EXTT7=
EXTT8=
EXTT9=
EXTT10=
EXTT11=
EXTT12=
EXTT13=
EXTT14=
EXTT15=
EXTT16=
EXTT17=
PLAYORDER=
